<?xml version="1.0" encoding="utf-8"?>
<!-- Generator: Adobe Illustrator 23.0.5, SVG Export Plug-In . SVG Version: 6.00 Build 0)  -->
<svg version="1.1" id="Capa_1" xmlns="http://www.w3.org/2000/svg" xmlns:xlink="http://www.w3.org/1999/xlink" x="0px" y="0px"
	 viewBox="0 0 30 26.4" style="enable-background:new 0 0 30 26.4;" xml:space="preserve">
<style type="text/css">
	.st0{fill:#DA928C;}
</style>
<g>
	<path class="st0" d="M27.6,2.4C26,0.9,23.9,0,21.7,0s-4.3,0.9-5.9,2.4L15,3.3l-0.8-0.8C12.6,0.9,10.5,0,8.3,0S4,0.9,2.4,2.4
		C0.9,4,0,6.1,0,8.3s0.9,4.3,2.4,5.9l11.9,11.9c0.2,0.2,0.4,0.3,0.6,0.3s0.4-0.1,0.6-0.2l12-11.9c1.6-1.6,2.4-3.7,2.4-5.9
		C30,6.1,29.1,4,27.6,2.4z"/>
</g>
</svg>
