<?xml version="1.0" encoding="utf-8"?>
<!-- Generator: Adobe Illustrator 23.0.5, SVG Export Plug-In . SVG Version: 6.00 Build 0)  -->
<svg version="1.1" id="Capa_1" xmlns="http://www.w3.org/2000/svg" xmlns:xlink="http://www.w3.org/1999/xlink" x="0px" y="0px"
	 viewBox="0 0 30 26.4" style="enable-background:new 0 0 30 26.4;" xml:space="preserve">
<style type="text/css">
	.st0{fill:#DA928C;}
</style>
<g>
	<path class="st0" d="M27.6,2.4C26,0.9,23.9,0,21.7,0s-4.3,0.9-5.9,2.4L15,3.3l-0.8-0.8C12.6,0.9,10.5,0,8.3,0C6.1,0,4,0.9,2.4,2.4
		C0.9,4,0,6.1,0,8.3c0,2.2,0.9,4.3,2.4,5.9l11.9,11.9c0.2,0.2,0.4,0.3,0.6,0.3s0.4-0.1,0.6-0.2l12-11.9c1.6-1.6,2.4-3.7,2.4-5.9
		C30,6.1,29.1,4,27.6,2.4z M26.4,13L15,24.3L3.7,13c-1.2-1.2-1.9-2.9-1.9-4.7s0.7-3.4,1.9-4.7c1.2-1.2,2.9-1.9,4.6-1.9
		c1.8,0,3.4,0.7,4.7,1.9l1.4,1.4c0.3,0.3,0.9,0.3,1.2,0L17,3.7c1.2-1.2,2.9-1.9,4.7-1.9c1.8,0,3.4,0.7,4.7,1.9
		c1.2,1.2,1.9,2.9,1.9,4.7C28.3,10.1,27.6,11.7,26.4,13z"/>
</g>
</svg>
