<?xml version="1.0" encoding="utf-8"?>
<!-- Generator: Adobe Illustrator 23.0.5, SVG Export Plug-In . SVG Version: 6.00 Build 0)  -->
<svg version="1.1" id="Capa_1" xmlns="http://www.w3.org/2000/svg" xmlns:xlink="http://www.w3.org/1999/xlink" x="0px" y="0px"
	 viewBox="0 0 20 20" style="enable-background:new 0 0 20 20;" xml:space="preserve">
<style type="text/css">
	.st0{fill:#FFFFFF;}
	.st1{fill-rule:evenodd;clip-rule:evenodd;fill:#FFFFFF;}
</style>
<g>
	<g>
		<g>
			<path class="st0" d="M19.25,4.16c-0.59,0.27-1.24,0.43-1.88,0.54c0.3-0.05,0.75-0.6,0.93-0.82c0.27-0.34,0.5-0.72,0.63-1.14
				c0.02-0.03,0.03-0.07,0-0.1c-0.04-0.02-0.07-0.01-0.1,0.01c-0.71,0.38-1.45,0.66-2.24,0.86c-0.07,0.02-0.11,0-0.15-0.04
				c-0.07-0.07-0.13-0.14-0.2-0.2c-0.33-0.28-0.68-0.5-1.08-0.66c-0.52-0.21-1.1-0.3-1.66-0.27c-0.55,0.04-1.09,0.19-1.58,0.45
				S11,3.4,10.65,3.83c-0.36,0.44-0.62,0.97-0.76,1.52C9.75,5.87,9.76,6.4,9.84,6.94c0.01,0.09,0,0.1-0.08,0.09
				C6.69,6.57,4.14,5.48,2.08,3.12c-0.09-0.1-0.14-0.1-0.21,0.01C0.96,4.48,1.4,6.66,2.53,7.73C2.68,7.88,2.83,8.02,3,8.15
				C2.94,8.16,2.19,8.08,1.52,7.73C1.43,7.68,1.38,7.71,1.38,7.81c-0.01,0.15,0,0.28,0.02,0.44c0.17,1.37,1.13,2.65,2.43,3.14
				c0.15,0.07,0.33,0.12,0.49,0.15c-0.3,0.07-0.6,0.11-1.45,0.05c-0.11-0.02-0.15,0.03-0.11,0.13c0.64,1.74,2.02,2.26,3.06,2.56
				c0.14,0.02,0.28,0.02,0.42,0.06c-0.01,0.01-0.02,0.01-0.02,0.02c-0.34,0.52-1.53,0.91-2.09,1.11c-1.01,0.35-2.11,0.51-3.17,0.41
				c-0.17-0.03-0.21-0.02-0.25,0c-0.05,0.03-0.01,0.07,0.05,0.11c0.22,0.14,0.44,0.27,0.66,0.39c0.68,0.36,1.38,0.64,2.12,0.85
				c3.81,1.05,8.1,0.28,10.96-2.56c2.25-2.23,3.03-5.31,3.03-8.39c0-0.12,0.14-0.19,0.23-0.25c0.58-0.44,1.05-0.96,1.48-1.55
				c0.1-0.13,0.09-0.25,0.09-0.3c0-0.01,0-0.02,0-0.02C19.32,4.11,19.33,4.13,19.25,4.16z"/>
		</g>
		<g>
			<path class="st1" d="M6.22,17.61C7.79,17.61,6.29,17.61,6.22,17.61C6.42,17.61,6.21,17.61,6.22,17.61z"/>
		</g>
		<g>
			<path class="st1" d="M6.22,17.61C6.19,17.61,5.91,17.61,6.22,17.61C6.22,17.61,6.17,17.61,6.22,17.61z"/>
		</g>
		<g>
			<path class="st1" d="M6.84,17.63C6.84,17.6,7.17,17.63,6.84,17.63C6.84,17.61,6.88,17.63,6.84,17.63z"/>
		</g>
		<g>
			<path class="st1" d="M13.44,2.35c-0.02,0.02-0.05,0.02-0.08,0C13.39,2.35,13.42,2.35,13.44,2.35z"/>
		</g>
	</g>
</g>
</svg>
