<?xml version="1.0" encoding="utf-8"?>
<!-- Generator: Adobe Illustrator 23.0.5, SVG Export Plug-In . SVG Version: 6.00 Build 0)  -->
<svg version="1.1" id="Capa_1" xmlns="http://www.w3.org/2000/svg" xmlns:xlink="http://www.w3.org/1999/xlink" x="0px" y="0px"
	 viewBox="0 0 30 33.7" style="enable-background:new 0 0 30 33.7;" xml:space="preserve">
<style type="text/css">
	.st0{fill:#3A3E3D;}
</style>
<g>
	<g>
		<path class="st0" d="M29.1,4.9h-7V3.7c0-2-1.7-3.7-3.7-3.7h-6.7C9.6,0,8,1.7,8,3.7v1.1H1c-0.6,0.1-1,0.5-1,1s0.4,0.9,0.9,0.9h1.7
			v22c0,2.8,2.2,5,5,5h14.7c2.8,0,5-2.2,5-5v-22H29c0.5,0,0.9-0.4,0.9-0.9S29.6,4.9,29.1,4.9z M9.8,3.7c0-1,0.8-1.8,1.8-1.8h6.7
			c1,0,1.8,0.8,1.8,1.8v1.1H9.8V3.7z M25.5,28.7c0,1.7-1.4,3.1-3.1,3.1H7.6c-1.7,0-3.1-1.4-3.1-3.1v-22h21V28.7L25.5,28.7z"/>
		<path class="st0" d="M15,28.5c0.5,0,0.9-0.4,0.9-0.9V11c0-0.5-0.4-0.9-0.9-0.9s-0.9,0.4-0.9,0.9v16.5C14.1,28.1,14.5,28.5,15,28.5
			z"/>
		<path class="st0" d="M8.9,27.5c0.5,0,0.9-0.4,0.9-0.9V12c0-0.5-0.4-0.9-0.9-0.9S8,11.5,8,12v14.5C8,27.1,8.4,27.5,8.9,27.5z"/>
		<path class="st0" d="M21.1,27.5c0.5,0,0.9-0.4,0.9-0.9V12c0-0.5-0.4-0.9-0.9-0.9s-0.9,0.4-0.9,0.9v14.5
			C20.2,27.1,20.6,27.5,21.1,27.5z"/>
	</g>
</g>
</svg>
