<?xml version="1.0" encoding="utf-8"?>
<!-- Generator: Adobe Illustrator 23.0.5, SVG Export Plug-In . SVG Version: 6.00 Build 0)  -->
<svg version="1.1" id="Capa_1" xmlns="http://www.w3.org/2000/svg" xmlns:xlink="http://www.w3.org/1999/xlink" x="0px" y="0px"
	 viewBox="0 0 20 20" style="enable-background:new 0 0 20 20;" xml:space="preserve">
<style type="text/css">
	.st0{fill:#FFFFFF;}
</style>
<g>
	<path class="st0" d="M15.3,3.7c-0.6,0-1.2,0.5-1.2,1.2S14.6,6,15.3,6c0.6,0,1.2-0.5,1.2-1.2S15.9,3.7,15.3,3.7z M10,5.2
		c-2.7,0-4.9,2.2-4.9,4.9S7.3,15,10,15s4.9-2.2,4.9-4.9S12.8,5.2,10,5.2z M10,13.3c-1.7,0-3.2-1.4-3.2-3.2S8.3,7,10,7
		s3.2,1.4,3.2,3.2C13.2,11.9,11.8,13.3,10,13.3z M20,6c0-3.3-2.7-6-6-6H6C2.7,0,0,2.7,0,6v8c0,3.3,2.7,6,6,6h8c3.3,0,6-2.7,6-6V6z
		 M18.1,14c0,2.3-1.9,4.1-4.1,4.1H6c-2.3,0-4.1-1.9-4.1-4.1V6c0-2.3,1.8-4.1,4.1-4.1h8c2.3,0,4.1,1.8,4.1,4.1V14z"/>
</g>
</svg>
