<?xml version="1.0" encoding="utf-8"?>
<!-- Generator: Adobe Illustrator 23.0.5, SVG Export Plug-In . SVG Version: 6.00 Build 0)  -->
<svg version="1.1" id="Capa_1" xmlns="http://www.w3.org/2000/svg" xmlns:xlink="http://www.w3.org/1999/xlink" x="0px" y="0px"
	 viewBox="0 0 20 20" style="enable-background:new 0 0 20 20;" xml:space="preserve">
<style type="text/css">
	.st0{fill-rule:evenodd;clip-rule:evenodd;fill:#FFFFFF;}
</style>
<g>
	<g>
		<path class="st0" d="M7.51,10.08v9.27c0,0.13,0.11,0.24,0.24,0.24h3.44c0.13,0,0.24-0.11,0.24-0.24V9.92h2.5
			c0.13,0,0.23-0.1,0.24-0.22l0.24-2.84c0.01-0.14-0.1-0.26-0.24-0.26h-2.74V4.59c0-0.47,0.38-0.85,0.85-0.85h1.92
			c0.13,0,0.24-0.11,0.24-0.24V0.65c0-0.13-0.11-0.24-0.24-0.24h-3.25c-1.91,0-3.45,1.55-3.45,3.45V6.6H5.79
			c-0.13,0-0.24,0.11-0.24,0.24v2.84c0,0.13,0.11,0.24,0.24,0.24h1.72V10.08z"/>
	</g>
</g>
</svg>
